<?xml version="1.0" encoding="UTF-8"?>
<svg version="1.1" xmlns="http://www.w3.org/2000/svg" width="88" height="88" viewBox="0 0 669 669">
<path d="M0 0 C10.26601921 9.23388802 20.26030188 18.77080341 28.83203125 29.62109375 C30.25909365 31.41333909 31.72554841 33.17495693 33.23046875 34.90234375 C50.37572482 54.60953464 63.87626679 77.75210965 74.984375 101.32421875 C75.3153418 102.02337402 75.64630859 102.7225293 75.98730469 103.44287109 C81.47565241 115.13646554 85.96131357 127.05520555 89.984375 139.32421875 C90.37471924 140.48630859 90.37471924 140.48630859 90.77294922 141.671875 C101.94172719 175.15696202 105.81361403 210.16873621 104.984375 245.32421875 C102.77637241 243.11621616 102.48493598 242.11182342 101.71884155 239.15565491 C101.37394432 237.8454261 101.37394432 237.8454261 101.02207947 236.50872803 C100.77680008 235.54815491 100.53152069 234.58758179 100.27880859 233.59790039 C100.01517014 232.58805588 99.75153168 231.57821136 99.47990417 230.5377655 C98.60740087 227.1883624 97.74494645 223.83646086 96.8828125 220.484375 C96.28082467 218.16258485 95.67832997 215.84092606 95.0753479 213.51939392 C93.8118731 208.64887942 92.55309634 203.77718293 91.29785156 198.90454102 C89.68644814 192.65004182 88.06575668 186.39799741 86.44183922 180.1467371 C85.19676137 175.35121668 83.95545311 170.55472725 82.71541214 165.75790215 C82.11903231 163.45191664 81.52174071 161.14616674 80.92353439 158.84065437 C80.08907507 155.6213457 79.2594142 152.40083953 78.43115234 149.17993164 C78.18182449 148.22138275 77.93249664 147.26283386 77.6756134 146.27523804 C77.45132156 145.39893234 77.22702972 144.52262665 76.99594116 143.61976624 C76.79943151 142.85819749 76.60292187 142.09662874 76.40045738 141.31198215 C75.984375 139.32421875 75.984375 139.32421875 75.984375 136.32421875 C62.124375 136.32421875 48.264375 136.32421875 33.984375 136.32421875 C33.324375 139.95421875 32.664375 143.58421875 31.984375 147.32421875 C31.26742813 150.34960665 30.52829704 153.35164932 29.7355957 156.35620117 C29.51820803 157.19352154 29.30082035 158.0308419 29.07684517 158.89353561 C28.35845384 161.6566022 27.63433398 164.41813236 26.91015625 167.1796875 C26.39207426 169.16743605 25.87434757 171.15527723 25.35694885 173.14320374 C23.96395087 178.49116557 22.56596593 183.8378121 21.16701508 189.18421936 C19.70952525 194.75780071 18.25664211 200.33258269 16.80322266 205.90722656 C14.10045268 216.27076687 11.39347589 226.63320297 8.68448639 236.99511909 C6.62325961 244.87940922 4.5633013 252.76402949 2.50439453 260.64892578 C1.93879735 262.81492624 1.37319982 264.98092661 0.80760193 267.14692688 C0.39370618 268.73197242 0.39370618 268.73197242 -0.0285511 270.34903908 C-5.68480959 292.00902968 -11.34862623 313.66703559 -17.015625 335.32421875 C-5.465625 335.65421875 6.084375 335.98421875 17.984375 336.32421875 C19.07923362 331.01796479 19.07923362 331.01796479 20.16674805 325.71020508 C22.22131498 315.85689509 24.64995564 306.12878005 26.984375 296.32421875 C44.804375 296.32421875 62.624375 296.32421875 80.984375 296.32421875 C83.39184941 303.54664198 85.39831943 310.57473089 87.171875 317.94921875 C87.44451172 319.04234375 87.71714844 320.13546875 87.99804688 321.26171875 C90.42420799 331.30687706 90.20263226 337.8906348 86.546875 347.51171875 C86.18634033 348.477146 85.82580566 349.44257324 85.4543457 350.43725586 C73.84699406 381.02618837 58.21457113 409.59779013 37.984375 435.32421875 C37.20320312 436.319375 36.42203125 437.31453125 35.6171875 438.33984375 C30.86786053 444.25537556 25.83150154 449.86631552 20.66796875 455.41796875 C18.24862597 458.03804303 15.8950357 460.70310652 13.546875 463.38671875 C8.3951749 469.11489684 2.75769054 474.24081892 -3.015625 479.32421875 C-4.00175781 480.19820312 -4.98789062 481.0721875 -6.00390625 481.97265625 C-70.08097687 537.92162257 -154.25876428 563.63360392 -238.5859375 559.015625 C-310.25575378 554.14474806 -378.96974163 524.65521796 -432.015625 476.32421875 C-432.69286621 475.70869141 -433.37010742 475.09316406 -434.06787109 474.45898438 C-442.13299014 467.09558467 -449.93036186 459.6513638 -457.015625 451.32421875 C-457.83804688 450.38964844 -458.66046875 449.45507812 -459.5078125 448.4921875 C-485.61992024 418.59356019 -505.52272286 383.59177198 -519.015625 346.32421875 C-519.37833496 345.32922363 -519.74104492 344.33422852 -520.11474609 343.30908203 C-523.95190182 332.60746681 -527.38361472 322.83270366 -526.015625 311.32421875 C-525.438125 312.04867188 -524.860625 312.773125 -524.265625 313.51953125 C-523.151875 314.90785156 -523.151875 314.90785156 -522.015625 316.32421875 C-521.37625 317.12601562 -520.736875 317.9278125 -520.078125 318.75390625 C-511.14332529 329.34705894 -499.8468285 335.57376095 -486.015625 337.32421875 C-466.34649043 338.90786824 -448.81357491 337.03990411 -432.77734375 324.5859375 C-417.11692324 310.385129 -413.21054184 288.39863502 -412.015625 268.32421875 C-411.65932114 258.66711602 -411.64697024 249.00179819 -411.61090803 239.33923554 C-411.59504722 235.63437194 -411.5683332 231.92958508 -411.5428772 228.22477722 C-411.49648852 221.24141064 -411.45955424 214.25802895 -411.42620432 207.27458924 C-411.38769696 199.31052783 -411.33836405 191.34654425 -411.28822017 183.38254893 C-411.18549556 167.02982333 -411.09747407 150.67706419 -411.015625 134.32421875 C-422.895625 134.32421875 -434.775625 134.32421875 -447.015625 134.32421875 C-446.99991455 138.32998047 -446.9842041 142.33574219 -446.96801758 146.46289062 C-446.91816515 159.74212692 -446.88496031 173.02136192 -446.86018848 186.30066681 C-446.84477707 194.34681499 -446.82379835 202.39287396 -446.78930664 210.43896484 C-446.75922755 217.45909519 -446.74000849 224.47916088 -446.73335952 231.49935389 C-446.72947829 235.21001355 -446.72047941 238.92048836 -446.69843483 242.63108826 C-446.4603097 284.39773713 -446.4603097 284.39773713 -456.015625 295.32421875 C-462.95034096 301.17113612 -470.18061724 302.04624762 -479.015625 301.32421875 C-486.57155234 299.8082586 -490.31980132 296.65435388 -495.140625 290.69921875 C-501.35118406 279.52021244 -501.16607678 266.53444013 -501.12915039 254.09350586 C-501.12929642 252.79496674 -501.12944244 251.49642761 -501.1295929 250.15853882 C-501.12987797 246.62404642 -501.12402833 243.08958846 -501.11701894 239.55510402 C-501.11073692 235.85156224 -501.11017778 232.14801955 -501.10899353 228.44447327 C-501.10589445 221.4430287 -501.09770035 214.44159989 -501.08764404 207.44016224 C-501.07643857 199.46429126 -501.07096131 191.4884195 -501.06594861 183.51254261 C-501.05551645 167.1164252 -501.03774158 150.72032461 -501.015625 134.32421875 C-507.285625 134.32421875 -513.555625 134.32421875 -520.015625 134.32421875 C-509.61008447 101.09362157 -492.71020579 69.59017048 -471.015625 42.32421875 C-470.35304688 41.47085938 -469.69046875 40.6175 -469.0078125 39.73828125 C-464.91973013 34.52798019 -460.61403198 29.56522877 -456.1484375 24.67578125 C-454.33193819 22.67297431 -452.57508381 20.63721031 -450.828125 18.57421875 C-442.8679401 9.46894925 -434.18699277 0.93459564 -424.69140625 -6.5546875 C-421.9189654 -8.75240339 -419.256409 -11.05209072 -416.578125 -13.36328125 C-402.59599275 -24.98502777 -387.37337908 -34.64261516 -371.44091797 -43.34570312 C-369.23590684 -44.55497438 -367.04827615 -45.79022346 -364.86328125 -47.03515625 C-329.99963129 -66.58278505 -289.57531269 -77.3360007 -250.015625 -81.67578125 C-249.18417969 -81.77004395 -248.35273438 -81.86430664 -247.49609375 -81.96142578 C-156.85713865 -90.91955448 -67.62409635 -60.21534457 0 0 Z M-389.015625 136.32421875 C-389.015625 202.32421875 -389.015625 268.32421875 -389.015625 336.32421875 C-378.125625 336.32421875 -367.235625 336.32421875 -356.015625 336.32421875 C-355.685625 291.11421875 -355.355625 245.90421875 -355.015625 199.32421875 C-348.580625 214.17421875 -348.580625 214.17421875 -342.015625 229.32421875 C-339.64963304 234.75931423 -337.28350114 240.19428364 -334.91210938 245.62701416 C-333.15257281 249.65842688 -331.39469312 253.69056212 -329.63671875 257.72265625 C-329.26795624 258.56843231 -328.89919373 259.41420837 -328.51925659 260.28561401 C-324.27938054 270.01121025 -320.04451842 279.73898649 -315.81253052 289.46801758 C-314.96530565 291.41553628 -314.11788188 293.36296848 -313.27023315 295.31030273 C-312.07020807 298.06729703 -310.87085754 300.82458342 -309.671875 303.58203125 C-309.28878677 304.4626825 -308.90569855 305.34333374 -308.51100159 306.25067139 C-306.47658983 310.9346352 -304.45759887 315.62471531 -302.45703125 320.32324219 C-302.04239624 321.29615204 -301.62776123 322.26906189 -301.20056152 323.27145386 C-300.40482033 325.14106228 -299.61119583 327.01157337 -298.81994629 328.88308716 C-298.46621948 329.7142807 -298.11249268 330.54547424 -297.74804688 331.40185547 C-297.436698 332.13717499 -297.12534912 332.87249451 -296.80456543 333.63009644 C-296.13636307 335.31764563 -296.13636307 335.31764563 -295.015625 336.32421875 C-283.795625 336.32421875 -272.575625 336.32421875 -261.015625 336.32421875 C-261.015625 270.32421875 -261.015625 204.32421875 -261.015625 136.32421875 C-271.575625 136.32421875 -282.135625 136.32421875 -293.015625 136.32421875 C-293.345625 173.94421875 -293.675625 211.56421875 -294.015625 250.32421875 C-315.44103774 202.96278007 -315.44103774 202.96278007 -324.45654297 182.80566406 C-326.13032319 179.06809659 -327.8088408 175.33268239 -329.48828125 171.59765625 C-330.36233064 169.65251506 -331.23627087 167.70732487 -332.11016846 165.76211548 C-332.91559802 163.97020819 -333.72217533 162.17881693 -334.52880859 160.38745117 C-338.11532626 152.40077019 -341.56558904 144.37430265 -345.015625 136.32421875 C-359.535625 136.32421875 -374.055625 136.32421875 -389.015625 136.32421875 Z M-240.015625 136.32421875 C-240.015625 202.32421875 -240.015625 268.32421875 -240.015625 336.32421875 C-228.135625 336.32421875 -216.255625 336.32421875 -204.015625 336.32421875 C-204.015625 307.94421875 -204.015625 279.56421875 -204.015625 250.32421875 C-184.215625 250.32421875 -164.415625 250.32421875 -144.015625 250.32421875 C-144.015625 237.78421875 -144.015625 225.24421875 -144.015625 212.32421875 C-163.815625 212.32421875 -183.615625 212.32421875 -204.015625 212.32421875 C-204.015625 199.78421875 -204.015625 187.24421875 -204.015625 174.32421875 C-182.565625 174.32421875 -161.115625 174.32421875 -139.015625 174.32421875 C-139.015625 161.78421875 -139.015625 149.24421875 -139.015625 136.32421875 C-172.345625 136.32421875 -205.675625 136.32421875 -240.015625 136.32421875 Z M-124.015625 136.32421875 C-124.015625 202.32421875 -124.015625 268.32421875 -124.015625 336.32421875 C-112.135625 336.32421875 -100.255625 336.32421875 -88.015625 336.32421875 C-88.015625 314.87421875 -88.015625 293.42421875 -88.015625 271.32421875 C-78.775625 271.32421875 -69.535625 271.32421875 -60.015625 271.32421875 C-43.73536347 268.94479591 -32.78345789 262.7486988 -22.265625 250.01171875 C-8.10709606 230.72280521 -5.75951609 205.94319351 -8.29980469 182.72705078 C-10.64824165 168.26810847 -17.32891538 154.38976636 -29.015625 145.32421875 C-56.94865284 127.73537368 -93.28231838 136.32421875 -124.015625 136.32421875 Z " fill="#E38A14" transform="translate(526.015625,91.67578125)"/>
<path d="M0 0 C28.04221976 0 28.04221976 0 35.28125 5.19921875 C40.58221945 10.75318901 43.7802647 18.51860953 44.1015625 26.16796875 C43.71613161 36.91556091 43.15836286 47.29385823 35.55078125 55.578125 C26.08432234 64.22465439 11.69313916 62 0 62 C0 41.54 0 21.08 0 0 Z " fill="#E38A14" transform="translate(438,264)"/>
<path d="M0 0 C2.14540321 3.21810481 2.7859292 5.57773461 3.69580078 9.31982422 C3.85214996 9.95596649 4.00849915 10.59210876 4.16958618 11.24752808 C4.68419885 13.34849409 5.1900116 15.45146408 5.6953125 17.5546875 C6.05081801 19.01824544 6.40668875 20.48171472 6.76290894 21.94509888 C7.50810918 25.01243858 8.24898151 28.08078288 8.98681641 31.14990234 C9.93154699 35.07818518 10.8867495 39.00383079 11.84520149 42.92878532 C12.58200629 45.95098124 13.31331027 48.97448754 14.04296494 51.9984169 C14.39294943 53.44605968 14.74461151 54.89329797 15.09799576 56.34011459 C15.59190011 58.36590965 16.07838585 60.39334933 16.56298828 62.42138672 C16.98029709 64.14988358 16.98029709 64.14988358 17.40603638 65.91329956 C18 69 18 69 18 74 C6.45 74 -5.1 74 -17 74 C-16.38124757 68.43122809 -15.82193687 63.65685997 -14.52539062 58.33447266 C-14.07987854 56.48808701 -14.07987854 56.48808701 -13.62536621 54.60440063 C-13.3024852 53.29091581 -12.97944269 51.97747067 -12.65625 50.6640625 C-12.32332014 49.29416674 -11.99084928 47.92415936 -11.65881348 46.55404663 C-10.96616835 43.70072739 -10.26997251 40.84830892 -9.57080078 37.99658203 C-8.67497125 34.34269394 -7.78515236 30.68737745 -6.89759064 27.03147316 C-6.0481966 23.53354311 -5.19620138 20.03624854 -4.34375 16.5390625 C-4.10088005 15.54173033 -4.10088005 15.54173033 -3.85310364 14.52425003 C-3.39502275 12.64554062 -2.93486434 10.76733813 -2.47460938 8.88916016 C-2.2133728 7.82154449 -1.95213623 6.75392883 -1.6829834 5.65396118 C-1.19291418 3.74963279 -0.62182268 1.86546804 0 0 Z " fill="#E38914" transform="translate(580,278)"/>
</svg>
