<svg
   xmlns:dc="http://purl.org/dc/elements/1.1/"
   xmlns:cc="http://creativecommons.org/ns#"
   xmlns:rdf="http://www.w3.org/1999/02/22-rdf-syntax-ns#"
   xmlns:svg="http://www.w3.org/2000/svg"
   xmlns="http://www.w3.org/2000/svg"
   version="1.1"
   width="88"
   height="88"
   viewBox="0 0 516.61023 286.62506" enable-background="new 0 0 516.61023 286.62506" xml:space="preserve">
  <defs
     id="defs3985" />
  <metadata
     id="metadata3988">
    <rdf:RDF>
      <cc:Work
         rdf:about="">
        <dc:format>image/svg+xml</dc:format>
        <dc:type
           rdf:resource="http://purl.org/dc/dcmitype/StillImage" />
        <dc:title></dc:title>
      </cc:Work>
    </rdf:RDF>
  </metadata>
  <g
     transform="translate(-91.694885,-389.04966)"
     id="layer1">
    <path
       d="m 536.39747,559.11073 12.16372,0 c 12.44961,0 18.11695,5.19568 21.36158,10.11263 4.00931,6.22479 5.35289,14.09334 5.35289,20.31814 0,15.6013 -5.94607,30.13058 -26.87883,30.13058 l -11.99936,0 0,-60.56135 z m -28.06519,85.20325 38.4351,0 c 41.70827,0 56.53773,-25.23507 56.53773,-55.20843 0,-12.02794 -2.50851,-23.76287 -10.08402,-34.13992 -14.24343,-20.48251 -36.20532,-20.48251 -48.52626,-20.48251 l -36.36255,0 0,109.83086 z m -64.67786,-75.6981 0.29303,0 0.14292,0 11.27753,37.56319 -22.98385,0 11.27037,-37.56319 z m 19.13894,59.81094 5.34575,15.88716 30.43075,0 -43.63074,-109.83086 -22.11913,0 -44.081,109.83086 30.14489,0 5.77455,-15.88716 38.13492,0 z m -131.42113,15.88716 26.85025,0 0,-41.85836 31.91728,0 0,-24.6419 -31.91728,0 0,-18.70299 33.11791,0 0,-24.62761 -59.96816,0 0,109.83086 z m -47.94023,0 28.05089,0 0,-109.83086 -28.05089,0"
       id="path22"
       style="fill:#000000;fill-opacity:1;fill-rule:nonzero;stroke:none" />
    <path
       d="m 139.97614,394.04971 0,77.09375 c -1.35074,1.39361 -15.15455,31.32805 22.9375,45.5 11.23465,4.18084 14.15625,13.875 14.15625,13.875 0,0 2.96714,-9.69416 14.1875,-13.875 38.09204,-14.17195 24.27394,-44.10639 22.9375,-45.5 l 0,-77.09375 -2.09375,0 0,76.90625 c -0.0572,0.87904 -0.32275,3.11748 -1.1875,5.46875 -1.11489,3.00162 -3.04894,6.21989 -5,7.40625 -4.6954,2.86584 -7.86724,3.42731 -12.3125,5.75 -3.90926,2.07255 -8.86282,5.42379 -16.53125,14.25 -7.63985,-8.82621 -12.56931,-12.17745 -16.5,-14.25 -4.43097,-2.32269 -7.61711,-2.88416 -12.3125,-5.75 -1.94391,-1.18636 -3.89226,-4.40463 -5,-7.40625 -0.8719,-2.35127 -1.09908,-4.58971 -1.15625,-5.46875 l 0,-76.90625 -2.125,0 z m 7.125,0 0,50.0625 c -1.2078,-0.3216 -7.81368,15.78944 4.25,33.65625 2.11543,2.52994 4.44177,5.13639 8.09375,7.1875 4.50243,2.53709 6.3125,3.71875 6.3125,3.71875 4.53817,3.13741 8.50383,7.18842 11.3125,12.0625 2.8301,-4.87407 6.83682,-8.92509 11.375,-12.0625 0,0 1.75471,-1.18166 6.25,-3.71875 3.65198,-2.05111 6.00957,-4.65756 8.125,-7.1875 12.04223,-17.86681 5.4578,-33.97785 4.25,-33.65625 l 0,-50.0625 -2.03125,0 0,53.96875 c 0,0 1.02028,6.22541 -8.40625,10.40625 -6.03184,2.68716 -14.17387,10.00565 -19.5625,19.375 -5.38149,-9.36935 -13.50657,-16.68784 -19.53125,-19.375 -9.42653,-4.18084 -8.375,-10.40625 -8.375,-10.40625 l 0,-53.96875 -2.0625,0 z m 9.6875,0 0,34.25 c -0.6718,0.67894 -0.99707,1.14688 -1.46875,1.96875 -0.51457,0.94338 -0.7168,1.52355 -1.03125,2.53125 -0.52172,1.65089 -0.77131,2.59729 -1,4.3125 -0.30017,2.26551 -0.35818,3.58804 -0.0937,5.875 0.26442,2.20119 0.57008,3.47299 1.40625,5.53125 0.98624,2.37271 1.79024,3.598 3.3125,5.65625 1.12918,1.53655 1.7653,2.4252 3.1875,3.71875 1.41505,1.27926 2.33481,1.86464 4,2.84375 1.35787,0.80043 2.24301,1.00759 3.59375,1.84375 1.95105,1.22924 2.98573,2.06786 4.59375,3.71875 1.70092,1.7581 2.30902,3.03199 3.78125,4.96875 1.48651,-1.93676 2.09013,-3.22495 3.8125,-4.96875 1.59372,-1.64374 2.65965,-2.48951 4.625,-3.71875 1.34358,-0.82187 2.20462,-1.04332 3.5625,-1.84375 1.65804,-0.97911 2.62334,-1.56449 4.03125,-2.84375 1.41505,-1.29355 2.05831,-2.1822 3.1875,-3.71875 1.51511,-2.04396 2.31644,-3.28354 3.28125,-5.65625 0.83617,-2.05826 1.17307,-3.33006 1.4375,-5.53125 0.26442,-2.28696 0.20641,-3.60949 -0.0937,-5.875 -0.24299,-1.71521 -0.50239,-2.66161 -1.03125,-4.3125 -0.3359,-1.0077 -0.48543,-1.58787 -1,-2.53125 -0.47168,-0.82187 -0.8041,-1.28981 -1.46875,-1.96875 l 0,-34.25 -2.09375,0 0,34.90625 c -0.16438,1.90103 0.044,3.03381 -0.40625,4.90625 -0.42166,1.7438 -0.7468,2.74204 -1.71875,4.25 -1.07916,1.66519 -1.92857,2.54318 -3.59375,3.59375 -0.90049,0.58602 -1.39408,1.0356 -2.4375,1.25 l -1.3125,0.0312 c 0.51451,-1.58658 0.8437,-3.61131 0.8437,-5.8125 0,-2.39415 -0.29878,-4.56786 -0.90625,-6.21875 l 0,-36.90625 -2.03125,0 0,33.5 -0.0312,0.0625 -0.0937,-0.1875 -1.46875,-1.625 c -0.55745,-0.47169 -0.8809,-0.7025 -1.53125,-1.03125 -0.58604,-0.30016 -0.9434,-0.46777 -1.59375,-0.625 -0.73612,-0.18586 -1.96875,-0.1875 -1.96875,-0.1875 0,0 -1.2112,0.002 -1.96875,0.1875 l -1.5625,0.625 -1.5,1.03125 -1.46875,1.625 -0.0937,0.1875 -0.0625,-0.0625 0,-33.5 -2.03125,0 0,36.90625 c -0.60033,1.65089 -0.875,3.8246 -0.875,6.21875 0,2.20119 0.31222,4.22593 0.8125,5.8125 l -1.3125,-0.0312 c -1.03628,-0.2144 -1.54416,-0.66398 -2.4375,-1.25 -1.67234,-1.04343 -2.52175,-1.93571 -3.59375,-3.59375 -0.97911,-1.50796 -1.30424,-2.5062 -1.71875,-4.25 -0.46454,-1.87244 -0.24903,-3.00522 -0.40625,-4.90625 l 0,-34.90625 -2.0625,0 z m -15.9375,140.5 0,68.375 c 0,10.7987 -8.73255,19.625 -19.53125,19.625 l -24.625005,0 0,21.75 24.718755,0 c 22.48359,0 40.59375,-18.18695 40.59375,-40.65625 l -0.0625,-69.09375 -21.09375,0 z m 25.71875,0 0,68.375 c 0,24.07731 -17.28487,45.96875 -45.25,45.96875 l -24.625005,0 0,21.78125 24.406255,0 c 37.7347,0 66.59375,-30.64728 66.59375,-67.03125 l -0.0312,-69.09375 -21.09375,0 z m 25.75,0 -0.0312,69.09375 c 0,22.4693 18.08605,40.65625 40.5625,40.65625 l 24.71874,0 0,-21.75 -24.62499,0 c -10.79155,0 -19.53125,-8.8263 -19.53125,-19.625 l 0,-68.375 -21.09375,0 z"
       id="path34"
       style="fill:#919191;fill-opacity:1;fill-rule:nonzero;stroke:none" />
  </g>
</svg>